<svg xmlns="http://www.w3.org/2000/svg" viewBox="0 0 512 512" role="img" aria-label="Robot Path Editor Apple touch icon">
  <defs>
    <linearGradient id="apple-bg" x1="96" x2="416" y1="96" y2="416" gradientUnits="userSpaceOnUse">
      <stop offset="0" stop-color="#eff6ff" />
      <stop offset="1" stop-color="#bfdbfe" />
    </linearGradient>
  </defs>
  <rect width="512" height="512" rx="108" fill="url(#apple-bg)" />
  <path
    d="M124 342c50-18 80-74 122-74 30 0 48 28 70 28 28 0 46-42 72-108"
    fill="none"
    stroke="#2563eb"
    stroke-linecap="round"
    stroke-width="34"
  />
  <circle cx="124" cy="342" r="22" fill="#2563eb" />
  <circle cx="388" cy="188" r="22" fill="#38bdf8" />
  <g transform="translate(214 126)">
    <rect x="0" y="0" width="84" height="84" rx="20" fill="#0f172a" />
    <rect x="18" y="20" width="48" height="28" rx="10" fill="#dbeafe" />
    <circle cx="28" cy="34" r="6" fill="#0f172a" />
    <circle cx="56" cy="34" r="6" fill="#0f172a" />
    <path d="M18 58h48" fill="none" stroke="#93c5fd" stroke-linecap="round" stroke-width="8" />
    <path d="M16 0V-20M68 0V-20" fill="none" stroke="#0f172a" stroke-linecap="round" stroke-width="10" />
    <circle cx="8" cy="84" r="12" fill="#0f172a" />
    <circle cx="76" cy="84" r="12" fill="#0f172a" />
  </g>
</svg>
