<svg xmlns="http://www.w3.org/2000/svg" viewBox="0 0 512 512" role="img" aria-label="Robot Path Editor icon">
  <defs>
    <linearGradient id="bg" x1="64" x2="448" y1="64" y2="448" gradientUnits="userSpaceOnUse">
      <stop offset="0" stop-color="#eff6ff" />
      <stop offset="1" stop-color="#dbeafe" />
    </linearGradient>
    <linearGradient id="path" x1="112" x2="400" y1="352" y2="160" gradientUnits="userSpaceOnUse">
      <stop offset="0" stop-color="#2563eb" />
      <stop offset="1" stop-color="#38bdf8" />
    </linearGradient>
  </defs>
  <rect width="512" height="512" rx="112" fill="url(#bg)" />
  <path
    d="M120 348c52-18 80-76 124-76 32 0 50 30 74 30 30 0 48-46 74-114"
    fill="none"
    stroke="url(#path)"
    stroke-linecap="round"
    stroke-width="36"
  />
  <circle cx="120" cy="348" r="22" fill="#2563eb" />
  <circle cx="392" cy="188" r="22" fill="#38bdf8" />
  <g transform="translate(214 120)">
    <rect x="0" y="0" width="84" height="84" rx="20" fill="#0f172a" />
    <rect x="18" y="20" width="48" height="28" rx="10" fill="#bfdbfe" />
    <circle cx="28" cy="34" r="6" fill="#0f172a" />
    <circle cx="56" cy="34" r="6" fill="#0f172a" />
    <path d="M18 58h48" fill="none" stroke="#93c5fd" stroke-linecap="round" stroke-width="8" />
    <path d="M16 0V-20M68 0V-20" fill="none" stroke="#0f172a" stroke-linecap="round" stroke-width="10" />
    <circle cx="8" cy="84" r="12" fill="#0f172a" />
    <circle cx="76" cy="84" r="12" fill="#0f172a" />
  </g>
</svg>
