<svg xmlns="http://www.w3.org/2000/svg" viewBox="0 0 512 512" role="img" aria-label="Robot Path Editor maskable icon">
  <defs>
    <radialGradient id="maskable-bg" cx="50%" cy="35%" r="75%">
      <stop offset="0" stop-color="#60a5fa" />
      <stop offset="1" stop-color="#1d4ed8" />
    </radialGradient>
    <linearGradient id="maskable-path" x1="136" x2="376" y1="352" y2="172" gradientUnits="userSpaceOnUse">
      <stop offset="0" stop-color="#ffffff" />
      <stop offset="1" stop-color="#dbeafe" />
    </linearGradient>
  </defs>
  <rect width="512" height="512" rx="132" fill="url(#maskable-bg)" />
  <circle cx="256" cy="256" r="164" fill="#1e3a8a" opacity="0.2" />
  <path
    d="M152 344c44-16 70-64 104-64 28 0 42 24 64 24 24 0 40-38 56-92"
    fill="none"
    stroke="url(#maskable-path)"
    stroke-linecap="round"
    stroke-width="34"
  />
  <circle cx="152" cy="344" r="20" fill="#ffffff" />
  <circle cx="376" cy="212" r="20" fill="#bfdbfe" />
  <g transform="translate(214 146)">
    <rect x="0" y="0" width="84" height="84" rx="20" fill="#f8fafc" />
    <rect x="18" y="20" width="48" height="28" rx="10" fill="#60a5fa" />
    <circle cx="28" cy="34" r="6" fill="#1e3a8a" />
    <circle cx="56" cy="34" r="6" fill="#1e3a8a" />
    <path d="M18 58h48" fill="none" stroke="#1d4ed8" stroke-linecap="round" stroke-width="8" />
    <path d="M16 0V-18M68 0V-18" fill="none" stroke="#f8fafc" stroke-linecap="round" stroke-width="10" />
    <circle cx="8" cy="84" r="12" fill="#f8fafc" />
    <circle cx="76" cy="84" r="12" fill="#f8fafc" />
  </g>
</svg>
